# xmcd
#
# Track frame offsets: 
#        150
#        12216
#        27223
#        42557
#        56776
#        69208
#        84114
#        99275
#        114395
#        126209
#        141138
#
# Disc length: 2113 seconds
#
# Revision: 0
# Processed by: cddbd v1.5.2PL0 Copyright (c) Steve Scherf et al.
# Submitted via: ExactAudioCopy v0.95b3
#
DISCID=86083f0b
DTITLE=Sergio Mendes and Brasil 66 - Best of Sergio Mendes (2007)
DYEAR=1900
DGENRE=
TTITLE0=Mas Que Nada
TTITLE1=Constant Rain Chove Chuva
TTITLE2=For Me
TTITLE3=Night and Day
TTITLE4=The Look of Love
TTITLE5=The Fool on the Hill
TTITLE6=Scarborough Fair
TTITLE7=Pretty World
TTITLE8=With a Little Help
TTITLE9=Berimbau
TTITLE10=Like a Lover
EXTD=
EXTT0=
EXTT1=
EXTT2=
EXTT3=
EXTT4=
EXTT5=
EXTT6=
EXTT7=
EXTT8=
EXTT9=
EXTT10=
PLAYORDER=
